<svg width="41" height="40" viewBox="0 0 41 40" fill="none" xmlns="http://www.w3.org/2000/svg">
<path d="M19.9181 31L15.9845 23L2.21702 16C2.02872 15.9123 1.86915 15.7714 1.75728 15.5941C1.64541 15.4168 1.58594 15.2106 1.58594 15C1.58594 14.7894 1.64541 14.5832 1.75728 14.4059C1.86915 14.2286 2.02872 14.0877 2.21702 14L37.6192 1L31.9135 17.068M33.6856 31V31.02M37.8571 35.242C38.6825 34.403 39.2446 33.3339 39.4724 32.1699C39.7002 31.006 39.5835 29.7995 39.137 28.703C38.6904 27.6066 37.9342 26.6694 36.9638 26.01C35.9935 25.3507 34.8526 24.9987 33.6856 24.9987C32.5185 24.9987 31.3777 25.3507 30.4073 26.01C29.437 26.6694 28.6807 27.6066 28.2342 28.703C27.7877 29.7995 27.6709 31.006 27.8987 32.1699C28.1265 33.3339 28.6887 34.403 29.514 35.242C30.3361 36.08 31.7267 37.332 33.6856 39C35.7527 37.22 37.1452 35.968 37.8571 35.242Z" stroke="#2C333D" stroke-width="1.8" stroke-linecap="round" stroke-linejoin="round"/>
</svg>
