<svg width="23" height="18" viewBox="0 0 23 18" fill="none" xmlns="http://www.w3.org/2000/svg">
<path d="M1 6.71429H22M5.66667 12.4286H5.67833M10.3333 12.4286H12.6667M1 4.42857C1 3.51926 1.36875 2.64719 2.02513 2.00421C2.6815 1.36122 3.57174 1 4.5 1H18.5C19.4283 1 20.3185 1.36122 20.9749 2.00421C21.6313 2.64719 22 3.51926 22 4.42857V13.5714C22 14.4807 21.6313 15.3528 20.9749 15.9958C20.3185 16.6388 19.4283 17 18.5 17H4.5C3.57174 17 2.6815 16.6388 2.02513 15.9958C1.36875 15.3528 1 14.4807 1 13.5714V4.42857Z" stroke="#9BA4AB" stroke-width="1.6" stroke-linecap="round" stroke-linejoin="round"/>
</svg>
