<svg width="23" height="23" viewBox="0 0 23 23" fill="none" xmlns="http://www.w3.org/2000/svg">
<path opacity="0.9" d="M12.0028 11.5C11.7375 11.5 11.4832 11.3946 11.2957 11.2071C11.1081 11.0196 11.0028 10.7652 11.0028 10.5C11.0028 10.2348 11.1081 9.98043 11.2957 9.79289C11.4832 9.60536 11.7375 9.5 12.0028 9.5C12.268 9.5 12.5223 9.60536 12.7099 9.79289C12.8974 9.98043 13.0028 10.2348 13.0028 10.5C13.0028 10.7652 12.8974 11.0196 12.7099 11.2071C12.5223 11.3946 12.268 11.5 12.0028 11.5ZM12.0028 11.5V14M12.0028 2.5C14.3386 4.56658 17.3872 5.64257 20.5028 5.5C20.9564 7.04302 21.0951 8.66147 20.9109 10.2592C20.7266 11.8569 20.2231 13.4013 19.4302 14.8005C18.6373 16.1998 17.5712 17.4254 16.2952 18.4045C15.0193 19.3836 13.5596 20.0962 12.0028 20.5C10.446 20.0962 8.98624 19.3836 7.71031 18.4045C6.43437 17.4254 5.36827 16.1998 4.57536 14.8005C3.78245 13.4013 3.2789 11.8569 3.09464 10.2592C2.91038 8.66147 3.04917 7.04302 3.50276 5.5C6.61829 5.64257 9.66693 4.56658 12.0028 2.5Z" stroke="#A3AEBD" stroke-width="1.6" stroke-linecap="round" stroke-linejoin="round"/>
</svg>
