<svg width="23" height="23" viewBox="0 0 23 23" fill="none" xmlns="http://www.w3.org/2000/svg">
<path opacity="0.9" d="M11.0188 20.9835C10.753 20.9863 10.4894 20.936 10.2433 20.8356C9.99721 20.7351 9.77368 20.5865 9.5858 20.3985L5.3418 16.1555C4.35116 15.1644 3.63823 13.9304 3.27438 12.5772C2.91052 11.2239 2.90852 9.79884 3.26856 8.44457C3.6286 7.09029 4.33805 5.85434 5.3259 4.86044C6.31375 3.86654 7.54535 3.14955 8.8974 2.78125C10.2495 2.41295 11.6745 2.40626 13.03 2.76184C14.3854 3.11742 15.6237 3.8228 16.6209 4.80738C17.618 5.79195 18.339 7.02118 18.7118 8.37201C19.0845 9.72285 19.0959 11.1479 18.7448 12.5045M14.9988 21.4985L19.9988 16.4985M19.9988 16.4985V20.9985M19.9988 16.4985H15.4988M7.9988 10.4985C7.9988 11.2942 8.31487 12.0572 8.87748 12.6198C9.44009 13.1824 10.2032 13.4985 10.9988 13.4985C11.7945 13.4985 12.5575 13.1824 13.1201 12.6198C13.6827 12.0572 13.9988 11.2942 13.9988 10.4985C13.9988 9.70286 13.6827 8.9398 13.1201 8.37719C12.5575 7.81458 11.7945 7.49851 10.9988 7.49851C10.2032 7.49851 9.44009 7.81458 8.87748 8.37719C8.31487 8.9398 7.9988 9.70286 7.9988 10.4985Z" stroke="#A3AEBD" stroke-width="1.6" stroke-linecap="round" stroke-linejoin="round"/>
</svg>
