<svg width="19" height="19" viewBox="0 0 19 19" fill="none" xmlns="http://www.w3.org/2000/svg">
<path opacity="0.9" d="M13.5 1.92864C13.7189 1.70977 13.9787 1.53615 14.2647 1.4177C14.5506 1.29925 14.8571 1.23828 15.1667 1.23828C15.4762 1.23828 15.7827 1.29925 16.0687 1.4177C16.3546 1.53615 16.6145 1.70977 16.8333 1.92864C17.0522 2.14751 17.2258 2.40734 17.3443 2.69331C17.4627 2.97928 17.5237 3.28577 17.5237 3.5953C17.5237 3.90483 17.4627 4.21133 17.3443 4.4973C17.2258 4.78326 17.0522 5.0431 16.8333 5.26197L5.58333 16.512L1 17.762L2.25 13.1786L13.5 1.92864Z" stroke="#A3AEBD" stroke-width="1.6" stroke-linecap="round" stroke-linejoin="round"/>
</svg>
