<svg width="41" height="48" viewBox="0 0 41 48" fill="none" xmlns="http://www.w3.org/2000/svg">
<path d="M1.75 43.75V39C1.75 36.4804 2.75057 34.0641 4.5316 32.2825C6.31262 30.5009 8.72822 29.5 11.247 29.5H19.5568M6.49848 10.5C6.49848 13.0196 7.49905 15.4359 9.28008 17.2175C11.0611 18.9991 13.4767 20 15.9955 20C18.5142 20 20.9298 18.9991 22.7108 17.2175C24.4919 15.4359 25.4924 13.0196 25.4924 10.5C25.4924 7.98044 24.4919 5.56408 22.7108 3.78249C20.9298 2.00089 18.5142 1 15.9955 1C13.4767 1 11.0611 2.00089 9.28008 3.78249C7.49905 5.56408 6.49848 7.98044 6.49848 10.5ZM31.2381 30.9487C31.7011 30.4856 32.2508 30.1182 32.8557 29.8675C33.4607 29.6169 34.109 29.4879 34.7638 29.4879C35.4186 29.4879 36.067 29.6169 36.672 29.8675C37.2769 30.1182 37.8266 30.4856 38.2896 30.9487C38.7526 31.4119 39.1199 31.9618 39.3704 32.5669C39.621 33.172 39.75 33.8206 39.75 34.4756C39.75 35.1306 39.621 35.7792 39.3704 36.3844C39.1199 36.9895 38.7526 37.5393 38.2896 38.0025L30.2409 46.125H23.1182V39L31.2381 30.9487Z" stroke="#2C333D" stroke-width="1.8" stroke-linecap="round" stroke-linejoin="round"/>
</svg>
