<svg width="27" height="27" viewBox="0 0 27 27" fill="none" xmlns="http://www.w3.org/2000/svg">
<path d="M6 7.71429C6 7.25963 6.17559 6.82359 6.48816 6.5021C6.80072 6.18061 7.22464 6 7.66667 6H19.3333C19.7754 6 20.1993 6.18061 20.5118 6.5021C20.8244 6.82359 21 7.25963 21 7.71429M6 7.71429V16.2857C6 16.7404 6.17559 17.1764 6.48816 17.4979C6.80072 17.8194 7.22464 18 7.66667 18H19.3333C19.7754 18 20.1993 17.8194 20.5118 17.4979C20.8244 17.1764 21 16.7404 21 16.2857V7.71429M6 7.71429L13.5 12.8571L21 7.71429" stroke="#186FD4" stroke-width="1.3" stroke-miterlimit="10" stroke-linecap="round" stroke-linejoin="round"/>
</svg>
