<svg width="40" height="36" viewBox="0 0 40 36" fill="none" xmlns="http://www.w3.org/2000/svg">
<path d="M24.3082 9.44444V5.22222C24.3082 4.10242 23.8633 3.02848 23.0715 2.23666C22.2797 1.44484 21.2057 1 20.0859 1H5.30816C4.18836 1 3.11442 1.44484 2.3226 2.23666C1.53078 3.02848 1.08594 4.10242 1.08594 5.22222V30.5556C1.08594 31.6754 1.53078 32.7493 2.3226 33.5411C3.11442 34.3329 4.18836 34.7778 5.30816 34.7778H20.0859C21.2057 34.7778 22.2797 34.3329 23.0715 33.5411C23.8633 32.7493 24.3082 31.6754 24.3082 30.5556V26.3333M13.7526 17.8889H39.0859M39.0859 17.8889L32.7526 11.5556M39.0859 17.8889L32.7526 24.2222" stroke="#2C333D" stroke-width="1.8" stroke-linecap="round" stroke-linejoin="round"/>
</svg>
