<svg width="33" height="26" viewBox="0 0 33 26" fill="none" xmlns="http://www.w3.org/2000/svg">
<path d="M16.5 8.3337V23.5M16.5 8.3337C16.078 6.59472 15.3514 5.10802 14.4149 4.06749C13.4784 3.02697 12.3755 2.4809 11.25 2.50051C10.4765 2.50051 9.73459 2.80779 9.18761 3.35476C8.64062 3.90173 8.33333 4.64358 8.33333 5.41711C8.33333 6.19064 8.64062 6.93248 9.18761 7.47945C9.73459 8.02642 10.4765 8.3337 11.25 8.3337M16.5 8.3337C16.922 6.59472 17.6486 5.10802 18.5851 4.06749C19.5216 3.02697 20.6245 2.4809 21.75 2.50051C22.5235 2.50051 23.2654 2.80779 23.8124 3.35476C24.3594 3.90173 24.6667 4.64358 24.6667 5.41711C24.6667 6.19064 24.3594 6.93248 23.8124 7.47945C23.2654 8.02642 22.5235 8.3337 21.75 8.3337M24.6667 13.0003V21.1667C24.6667 21.7855 24.4208 22.379 23.9832 22.8166C23.5457 23.2542 22.9522 23.5 22.3333 23.5H10.6667C10.0478 23.5 9.45434 23.2542 9.01675 22.8166C8.57917 22.379 8.33333 21.7855 8.33333 21.1667V13.0003M6 9.50034C6 9.19093 6.12292 8.89419 6.34171 8.6754C6.5605 8.45662 6.85725 8.3337 7.16667 8.3337H25.8333C26.1428 8.3337 26.4395 8.45662 26.6583 8.6754C26.8771 8.89419 27 9.19093 27 9.50034V11.8336C27 12.143 26.8771 12.4398 26.6583 12.6586C26.4395 12.8773 26.1428 13.0003 25.8333 13.0003H7.16667C6.85725 13.0003 6.5605 12.8773 6.34171 12.6586C6.12292 12.4398 6 12.143 6 11.8336V9.50034Z" stroke="#16191E" stroke-width="1.6" stroke-miterlimit="10"/>
</svg>
