<svg width="19" height="17" viewBox="0 0 19 17" fill="none" xmlns="http://www.w3.org/2000/svg">
<path opacity="0.9" d="M16.6514 2.32294C16.2253 1.90361 15.719 1.5709 15.1615 1.34388C14.604 1.11686 14.0063 1 13.4027 1C12.799 1 12.2013 1.11686 11.6439 1.34388C11.0864 1.5709 10.5801 1.90361 10.154 2.32294L9.5 2.97264L8.84602 2.32294C8.41993 1.90361 7.91362 1.5709 7.35614 1.34388C6.79866 1.11686 6.20096 1 5.59733 1C4.9937 1 4.39601 1.11686 3.83852 1.34388C3.28104 1.5709 2.77474 1.90361 2.34865 2.32294C0.548071 4.0888 0.437658 7.07076 2.70537 9.33639L9.5 16L16.2946 9.33639C18.5623 7.07076 18.4519 4.0888 16.6514 2.32294Z" stroke="#A3AEBD" stroke-width="1.6" stroke-linecap="round" stroke-linejoin="round"/>
</svg>
