<svg width="41" height="36" viewBox="0 0 41 36" fill="none" xmlns="http://www.w3.org/2000/svg">
<path d="M36.4836 3.93013C35.5546 3.00118 34.453 2.2643 33.2386 1.76154C32.0261 1.25876 30.7263 1 29.4119 1C28.0994 1 26.7978 1.25876 25.5853 1.76154C24.3709 2.2643 23.2693 3.00118 22.3403 3.93013L20.4133 5.85711L18.4865 3.93013C16.611 2.05462 14.0674 1.00096 11.4149 1.00096C8.76258 1.00096 6.21879 2.05462 4.34326 3.93013C2.46773 5.80566 1.41406 8.34945 1.41406 11.0018C1.41406 13.6541 2.46773 16.1979 4.34326 18.0734L6.27023 20.0004L20.4133 34.1437L34.5566 20.0004L36.4836 18.0734C37.4125 17.1448 38.1488 16.0425 38.6523 14.8292C39.1559 13.6157 39.4141 12.3152 39.4141 11.0018C39.4141 9.68834 39.1559 8.38781 38.6523 7.17436C38.1488 5.96109 37.4125 4.85872 36.4836 3.93013Z" stroke="#2C333D" stroke-width="1.8" stroke-linecap="round" stroke-linejoin="round"/>
</svg>
