<svg width="34" height="26" viewBox="0 0 34 26" fill="none" xmlns="http://www.w3.org/2000/svg">
<rect x="6.8" y="3.3" width="20.4" height="20.4" rx="7.2" stroke="#16191E" stroke-width="1.6"/>
<path d="M14.1089 13.9462C13.3421 13.1794 12.9113 12.1393 12.9113 11.0549C12.9113 9.97046 13.3421 8.93044 14.1089 8.16362C14.8758 7.39681 15.9158 6.96602 17.0002 6.96602C18.0847 6.96602 19.1247 7.39681 19.8915 8.16362C20.6583 8.93044 21.0891 9.97046 21.0891 11.0549C21.0891 12.1393 20.6583 13.1794 19.8915 13.9462C19.1247 14.713 18.0847 15.1438 17.0002 15.1438C15.9158 15.1438 14.8758 14.713 14.1089 13.9462Z" stroke="#16191E" stroke-width="1.6"/>
<path d="M24.3337 22.0564C24.3337 18.3063 21.0504 15.9453 17.0003 15.9453C12.9502 15.9453 9.66699 18.3063 9.66699 22.0564" stroke="#16191E" stroke-width="1.6"/>
</svg>
