<svg width="215" height="54" viewBox="0 0 215 54" fill="none" xmlns="http://www.w3.org/2000/svg">
<g clip-path="url(#clip0_5732_14275)">
<path fill-rule="evenodd" clip-rule="evenodd" d="M27.6218 10.474C32.306 10.474 36.5472 12.3355 39.6086 15.3461L33.3718 21.4068L28.2358 16.2681L16.1876 27.1485L19.8718 27.1398L19.9376 36.386L25.5998 36.4646V32.6761C25.5998 31.8415 26.442 32.0207 28.2314 32.0425H28.2446H28.2577C30.0472 32.0163 30.8893 31.8415 30.8893 32.6761V36.4646L36.442 36.386L39.0604 39.1738C36.0516 41.8742 32.0384 43.5259 27.6306 43.5259C18.2928 43.5259 10.7227 36.1281 10.7227 27C10.7227 17.8718 18.2841 10.474 27.6218 10.474ZM19.8367 21.752L22.8323 19.2876L22.8674 17.9548H19.8323V21.752H19.8367Z" fill="#2B2C86"/>
<path fill-rule="evenodd" clip-rule="evenodd" d="M27.6228 0C35.2763 0 42.2018 3.04127 47.2061 7.95711L43.4912 11.5708C39.4386 7.58569 33.8246 5.12122 27.6228 5.12122C15.2588 5.12122 5.23684 14.9179 5.23684 27C5.23684 39.0821 15.2588 48.8788 27.6228 48.8788C33.4605 48.8788 38.7719 46.694 42.7588 43.1196L46.3026 46.8906C41.386 51.3039 34.8289 54 27.6272 54C12.3684 54 0 41.9136 0 27C0 12.0864 12.3684 0 27.6228 0Z" fill="#E52B0E"/>
<path fill-rule="evenodd" clip-rule="evenodd" d="M57.211 30.5525C54.8645 30.5525 52.8689 29.7485 51.2198 28.1361C49.5707 26.5237 48.7461 24.5486 48.7461 22.2065C48.7461 19.8644 49.5707 17.8849 51.2198 16.255C52.8689 14.6295 54.8645 13.8124 57.211 13.8124C57.654 13.8124 58.0663 13.8343 58.4478 13.8823C58.8294 13.9304 59.2066 14.0134 59.5882 14.1401L59.8952 13.6988L62.5356 15.2107L60.7505 18.6059C59.5926 17.5659 58.4128 17.0503 57.2066 17.0503C55.8733 17.0503 54.7505 17.5484 53.8294 18.536C52.9084 19.5279 52.4522 20.7514 52.4522 22.2109C52.4522 23.6703 52.9128 24.8457 53.8294 25.8377C54.7505 26.8296 55.8733 27.3233 57.2066 27.3233C58.6189 27.3233 59.7593 26.8296 60.6321 25.8377L62.0356 29.1149C60.6408 30.0762 59.0312 30.5569 57.2066 30.5569L57.211 30.5525ZM66.1759 30.1112V17.5135H62.8952L64.0136 14.2843H70.3645L70.768 13.5633H73.9785L72.5268 17.5135H69.6715V30.1112H66.1759ZM75.2592 30.1112H78.7549V25.322H80.7768C82.2022 25.322 83.4084 24.7583 84.3908 23.6266C85.3733 22.4949 85.8645 21.1228 85.8645 19.5104C85.8645 18.0684 85.3514 16.8362 84.3207 15.8137C83.29 14.7912 82.0838 14.28 80.7066 14.28H74.9259L73.7373 17.5091H75.2592V30.1068V30.1112ZM78.7549 17.5135H79.825C80.4917 17.5135 81.0443 17.7363 81.4917 18.1864C81.9347 18.6365 82.1584 19.1871 82.1584 19.8381C82.1584 20.4892 81.9303 21.0092 81.4698 21.4418C81.0093 21.8744 80.4566 22.0929 79.8031 22.0929H78.7549V17.5135ZM95.404 30.5525C93.0575 30.5525 91.0619 29.7485 89.4128 28.1361C87.7636 26.5237 86.9391 24.5486 86.9391 22.2065C86.9391 19.8644 87.7636 17.9199 89.4128 16.2769C91.0619 14.6339 93.0575 13.8124 95.404 13.8124C97.7505 13.8124 99.7461 14.6252 101.395 16.255C103.044 17.8849 103.869 19.8644 103.869 22.2065C103.869 24.5486 103.044 26.4844 101.395 28.1099C99.7461 29.7354 97.7505 30.5525 95.404 30.5525ZM95.404 17.0459C94.0882 17.0459 92.9654 17.5441 92.04 18.5447C91.1145 19.5454 90.6496 20.7645 90.6496 22.2065C90.6496 23.6485 91.1101 24.8414 92.0312 25.8333C92.9522 26.8252 94.075 27.319 95.4084 27.319C96.7417 27.319 97.8645 26.8252 98.7856 25.8333C99.7066 24.8414 100.167 23.631 100.167 22.2065C100.167 20.782 99.7022 19.5454 98.7768 18.5447C97.8514 17.5441 96.7285 17.0459 95.4128 17.0459H95.404ZM114.145 14.28H117.641V30.1112H114.145V21.4636L109.483 30.1112H105.987V17.5135H104.465L105.654 14.2843H109.483V23.1416L114.145 14.2843V14.28ZM107.821 11.562L109.106 10.2599C109.439 10.6488 109.838 10.9372 110.307 11.1338C110.777 11.3261 111.255 11.4222 111.746 11.4222C112.807 11.4222 113.68 11.0333 114.36 10.2599L115.737 11.6101L115.641 11.7718C114.549 12.9341 113.246 13.5153 111.742 13.5153C110.965 13.5153 110.242 13.358 109.579 13.039C108.913 12.72 108.325 12.2306 107.821 11.562ZM128.132 30.5525C125.786 30.5525 123.79 29.7485 122.141 28.1361C120.492 26.5237 119.667 24.5486 119.667 22.2065C119.667 19.8644 120.492 17.9199 122.141 16.2769C123.79 14.6339 125.786 13.8124 128.132 13.8124C130.479 13.8124 132.474 14.6252 134.123 16.255C135.772 17.8805 136.597 19.8644 136.597 22.2065C136.597 24.5486 135.772 26.4844 134.123 28.1099C132.474 29.7354 130.479 30.5525 128.132 30.5525ZM128.132 17.0459C126.816 17.0459 125.693 17.5441 124.768 18.5447C123.843 19.5454 123.378 20.7645 123.378 22.2065C123.378 23.6485 123.838 24.8414 124.759 25.8333C125.68 26.8252 126.803 27.319 128.136 27.319C129.47 27.319 130.593 26.8252 131.514 25.8333C132.435 24.8414 132.891 23.631 132.891 22.2065C132.891 20.782 132.426 19.5454 131.5 18.5447C130.575 17.5441 129.452 17.0459 128.136 17.0459H128.132ZM138.382 14.28H149.987V30.1112H146.492V17.5135H142.211V30.1112H138.715V17.5135H137.193L138.382 14.2843V14.28ZM154.698 30.1112V17.5135H151.417L152.536 14.2843H158.886L159.29 13.5633H162.5L161.049 17.5135H158.193V30.1112H154.698ZM165.544 30.1112H169.04V17.5135H171.895L173.347 13.5633H170.136L169.733 14.2843H163.382L162.264 17.5135H165.544V30.1112ZM182.167 30.5525C179.821 30.5525 177.825 29.7485 176.176 28.1361C174.527 26.5237 173.702 24.5486 173.702 22.2065C173.702 19.8644 174.527 17.9199 176.176 16.2769C177.825 14.6339 179.821 13.8124 182.167 13.8124C184.514 13.8124 186.509 14.6252 188.158 16.255C189.807 17.8849 190.632 19.8644 190.632 22.2065C190.632 24.5486 189.807 26.4844 188.158 28.1099C186.509 29.7354 184.514 30.5525 182.167 30.5525ZM182.167 17.0459C180.851 17.0459 179.729 17.5441 178.803 18.5447C177.878 19.5454 177.413 20.7645 177.413 22.2065C177.413 23.6485 177.873 24.8414 178.79 25.8333C179.711 26.8252 180.834 27.319 182.167 27.319C183.5 27.319 184.623 26.8252 185.544 25.8333C186.465 24.8414 186.922 23.631 186.922 22.2065C186.922 20.782 186.457 19.5454 185.531 18.5447C184.606 17.5441 183.483 17.0459 182.167 17.0459ZM192.75 30.1112V17.5135H191.229L192.417 14.2843H198.198C199.575 14.2843 200.781 14.7956 201.812 15.8181C202.843 16.8406 203.356 18.0728 203.356 19.5148C203.356 21.1272 202.865 22.4992 201.882 23.631C200.9 24.7627 199.693 25.3264 198.268 25.3264H196.246V30.1155H192.75V30.1112ZM196.246 17.5135V22.0929H197.294C197.943 22.0929 198.5 21.8744 198.961 21.4418C199.422 21.0092 199.65 20.4717 199.65 19.8381C199.65 19.2045 199.426 18.6365 198.983 18.1864C198.54 17.7363 197.983 17.5135 197.316 17.5135H196.246ZM205.356 30.1112V17.5135H203.834L205.022 14.2843H211.395L211.825 13.5633H215.014L213.562 17.5135H208.851V30.1112H205.356Z" fill="#E52B0E"/>
<path fill-rule="evenodd" clip-rule="evenodd" d="M57.8438 37.9228V43.0103H60.5271C61.5091 43.0103 62.1924 42.4089 62.1924 41.509C62.1924 40.8497 61.7987 40.4176 61.2014 40.275C61.6448 40.1057 61.9571 39.6959 61.9571 39.2014C61.9571 38.444 61.3869 37.9228 60.2466 37.9228H57.8438ZM58.7442 38.6445H60.0294C60.5543 38.6445 61.0339 38.7069 61.0339 39.3439C61.0339 39.8562 60.6855 40.0433 59.9977 40.0433H58.7397V38.6445H58.7442ZM58.7442 40.6893H60.1108C60.7081 40.6893 61.2647 40.7873 61.2647 41.4912C61.2647 42.1416 60.7489 42.2842 60.1244 42.2842H58.7397V40.6893H58.7442ZM67.5682 41.0769H66.6451C66.55 41.8253 66.1564 42.3777 65.3011 42.3777C64.1789 42.3777 63.749 41.4155 63.749 40.471C63.749 39.5266 64.2015 38.5688 65.3102 38.5688C65.9889 38.5688 66.4867 38.9341 66.6134 39.5488H67.532C67.3555 38.3683 66.3781 37.8114 65.3283 37.8114C63.7309 37.8114 62.8214 39.0276 62.8214 40.471C62.8214 42.0792 63.7988 43.1351 65.283 43.1351C66.5998 43.1351 67.4777 42.3154 67.5772 41.0769H67.5682ZM72.1838 37.9273H68.3918V43.0148H72.229V42.2485H69.3058V40.7472H71.9756V40.0255H69.3058V38.6757H72.1838V37.9273ZM71.4236 36.72H70.6045V37.4907H71.4236V36.72ZM69.9529 36.72H69.1248V37.4907H69.9529V36.72ZM79.8176 44.28V42.2441H79.2248V37.9273H75.7948V38.7113C75.7948 40.1102 75.5052 41.5536 75.107 42.2396H74.5957V44.2755H75.4916V43.0103H78.9216V44.2755H79.8176V44.28ZM78.3017 42.2441H76.098C76.4238 41.607 76.6953 40.2705 76.6953 39.0098V38.7024H78.3017V42.2441ZM84.5735 43.0148V37.9273H81.1344L81.0303 40.8764C80.9851 42.1683 80.6955 42.3822 80.3199 42.3822C80.2475 42.3822 80.0665 42.3688 79.9579 42.3243V43.0103C80.0891 43.0549 80.3063 43.1039 80.5145 43.1039C81.2702 43.1039 81.8675 42.5381 81.9263 41.117L82.0213 38.6935H83.6504V43.0103H84.5735V43.0148ZM89.6325 43.0148V37.9273H87.2342C86.112 37.9273 85.4876 38.493 85.4876 39.335C85.4876 39.9765 85.6957 40.5512 86.6279 40.8274L85.0079 43.0148H86.1618L87.6551 40.9165H88.7049V43.0148H89.628H89.6325ZM88.7094 40.2349H87.3202C86.7274 40.2349 86.4197 39.9498 86.4197 39.4152C86.4197 38.8806 86.7093 38.6579 87.3383 38.6579H88.7139V40.2349H88.7094ZM97.2981 41.0769H96.3749C96.2799 41.8253 95.8862 42.3777 95.031 42.3777C93.9088 42.3777 93.4789 41.4155 93.4789 40.471C93.4789 39.5266 93.9314 38.5688 95.04 38.5688C95.7188 38.5688 96.2166 38.9341 96.3433 39.5488H97.2619C97.0854 38.3683 96.108 37.8114 95.0581 37.8114C93.4608 37.8114 92.5512 39.0276 92.5512 40.471C92.5512 42.0792 93.5286 43.1351 95.0129 43.1351C96.3297 43.1351 97.2076 42.3154 97.3071 41.0769H97.2981ZM101.773 37.9273H97.4926V38.698H99.1714V43.0148H100.095V38.698H101.773V37.9273ZM102.393 37.9273V43.0148H103.316V41.0591H104.805C105.869 41.0591 106.516 40.4443 106.516 39.482C106.516 38.4173 105.769 37.9317 104.683 37.9317H102.398L102.393 37.9273ZM103.316 38.6712H104.52C105.104 38.6712 105.606 38.845 105.606 39.4998C105.606 40.1013 105.199 40.3374 104.602 40.3374H103.316V38.6712ZM109.579 37.807C107.968 37.807 107.036 38.9786 107.036 40.471C107.036 42.057 108.059 43.1351 109.566 43.1351C111.072 43.1351 112.095 42.057 112.095 40.471C112.095 38.8851 111.068 37.807 109.579 37.807ZM109.566 38.5554C110.543 38.5554 111.163 39.2994 111.163 40.4621C111.163 41.6248 110.543 42.3822 109.579 42.3822C108.615 42.3822 107.968 41.6382 107.968 40.4532C107.968 39.2682 108.597 38.5509 109.566 38.5509V38.5554ZM112.914 43.0148H113.987L116.249 39.1123V43.0148H117.172V37.9273H116.1L113.837 41.8298V37.9273H112.914V43.0148ZM122.05 37.9273H117.77V38.698H119.448V43.0148H120.372V38.698H122.05V37.9273ZM126.444 37.9273H122.652V43.0148H126.489V42.2485H123.566V40.7472H126.236V40.0255H123.566V38.6757H126.444V37.9273ZM131.435 43.0148V37.9273H127.996L127.892 40.8764C127.847 42.1683 127.557 42.3822 127.182 42.3822C127.109 42.3822 126.928 42.3688 126.82 42.3243V43.0103C126.951 43.0549 127.168 43.1039 127.376 43.1039C128.132 43.1039 128.729 42.5381 128.788 41.117L128.883 38.6935H130.512V43.0103H131.435V43.0148ZM136.657 41.4377C136.657 40.4354 136.015 39.8741 134.861 39.8741H133.454V37.9317H132.53V43.0192H134.861C136.006 43.0192 136.657 42.449 136.657 41.4422V41.4377ZM135.734 41.46C135.734 42.008 135.431 42.2886 134.825 42.2886H133.458V40.6047H134.811C135.39 40.6047 135.734 40.9254 135.734 41.46ZM141.97 41.0813H141.047C140.952 41.8298 140.558 42.3822 139.703 42.3822C138.58 42.3822 138.151 41.4199 138.151 40.4755C138.151 39.531 138.603 38.5732 139.712 38.5732C140.391 38.5732 140.888 38.9385 141.015 39.5533H141.934C141.757 38.3727 140.78 37.8159 139.73 37.8159C138.133 37.8159 137.223 39.0321 137.223 40.4755C137.223 42.0837 138.2 43.1395 139.685 43.1395C141.001 43.1395 141.879 42.3198 141.979 41.0813H141.97ZM146.445 37.9317H142.164V38.7024H143.843V43.0192H144.766V38.7024H146.445V37.9317ZM147.042 37.9317V43.0192H149.726C150.708 43.0192 151.391 42.4178 151.391 41.5179C151.391 40.8586 150.997 40.4265 150.4 40.2839C150.843 40.1146 151.156 39.7048 151.156 39.2103C151.156 38.4529 150.586 37.9317 149.445 37.9317H147.042ZM147.943 38.6534H149.228C149.753 38.6534 150.233 38.7158 150.233 39.3528C150.233 39.8651 149.884 40.0523 149.196 40.0523H147.938V38.6534H147.943ZM147.943 40.6982H149.31C149.907 40.6982 150.463 40.7962 150.463 41.5001C150.463 42.1505 149.948 42.2931 149.323 42.2931H147.938V40.6982H147.943ZM154.658 37.9317H153.676L151.644 43.0192H152.599L153.115 41.6694H155.201L155.703 43.0192H156.694L154.663 37.9317H154.658ZM154.952 40.9967H153.346L154.165 38.8583L154.948 40.9967H154.952ZM159.229 43.0192H160.301L162.563 39.1167V43.0192H163.487V37.9317H162.414L160.152 41.8342V37.9317H159.229V43.0192ZM166.654 37.9317V43.0192H167.577V41.0635H169.066C170.129 41.0635 170.777 40.4487 170.777 39.4865C170.777 38.4218 170.03 37.9362 168.944 37.9362H166.659L166.654 37.9317ZM167.577 38.6757H168.781C169.365 38.6757 169.867 38.8494 169.867 39.5043C169.867 40.1057 169.46 40.3418 168.862 40.3418H167.577V38.6757ZM175.356 37.9317H171.564V43.0192H175.401V42.253H172.478V40.7517H175.148V40.03H172.478V38.6801H175.356V37.9317ZM181.7 37.9317H180.415L178.994 41.91L177.523 37.9317H176.229V43.0192H177.103V39.0989L178.605 43.0192H179.361L180.827 39.0989V43.0192H181.709V37.9317H181.7ZM185.071 37.8114C183.46 37.8114 182.528 38.9831 182.528 40.4755C182.528 42.0614 183.551 43.1395 185.058 43.1395C186.565 43.1395 187.587 42.0614 187.587 40.4755C187.587 38.8895 186.56 37.8114 185.071 37.8114ZM185.058 38.5599C186.035 38.5599 186.655 39.3038 186.655 40.4666C186.655 41.6293 186.035 42.3866 185.071 42.3866C184.107 42.3866 183.46 41.6427 183.46 40.4576C183.46 39.2726 184.089 38.5554 185.058 38.5554V38.5599ZM192.669 37.9317H191.746V39.9542H189.334V37.9317H188.411V43.0192H189.334V40.7339H191.746V43.0192H192.669V37.9317ZM197.542 37.9317H193.262V38.7024H194.941V43.0192H195.864V38.7024H197.542V37.9317ZM199.873 37.9317L201.905 43.0192H200.914L200.411 41.6694H198.325L197.809 43.0192H196.855L198.886 37.9317H199.868H199.873ZM200.167 40.9967L199.384 38.8583L198.565 40.9967H200.172H200.167Z" fill="#2B2C86"/>
</g>
<defs>
<clipPath id="clip0_5732_14275">
<rect width="215" height="54" fill="white"/>
</clipPath>
</defs>
</svg>
