<svg width="36" height="24" viewBox="0 0 36 24" fill="none" xmlns="http://www.w3.org/2000/svg">
<path fill-rule="evenodd" clip-rule="evenodd" d="M13.872 11.9992C13.872 13.7155 14.2722 15.408 15.0408 16.9424C15.8094 18.477 16.9251 19.8112 18.2994 20.839C16.6559 22.0774 14.6999 22.8331 12.6509 23.0214C10.6019 23.2096 8.54135 22.823 6.69954 21.9049C4.85774 20.9867 3.30902 19.5734 2.22608 17.8237C1.14313 16.0739 0.569336 14.0569 0.569336 11.9992C0.569336 9.94155 1.14313 7.92459 2.22608 6.17488C3.30902 4.42507 4.85774 3.01175 6.69954 2.0936C8.54135 1.17553 10.6019 0.788833 12.6509 0.977087C14.6999 1.16543 16.6559 1.9211 18.2994 3.15945C16.9251 4.18732 15.8094 5.52157 15.0408 7.05603C14.2722 8.59048 13.872 10.2831 13.872 11.9992Z" fill="black"/>
<path opacity="0.3" fill-rule="evenodd" clip-rule="evenodd" d="M24.9409 23.0678C22.5439 23.068 20.2116 22.2854 18.2998 20.8391C19.6741 19.8113 20.7898 18.4771 21.5584 16.9426C22.327 15.4081 22.7272 13.7155 22.7272 11.9993C22.7272 10.2831 22.327 8.59054 21.5584 7.056C20.7898 5.52154 19.6741 4.18739 18.2998 3.15952C19.7015 2.10623 21.3343 1.4013 23.0619 1.1028C24.7895 0.804394 26.564 0.920925 28.2385 1.44292C29.912 1.96491 31.4386 2.87731 32.6907 4.10495C33.9428 5.33258 34.8849 6.84029 35.4401 8.50376C35.9944 10.1672 36.1458 11.9387 35.882 13.6722C35.6172 15.4058 34.9451 17.0516 33.9197 18.474C32.8944 19.8966 31.5449 21.0549 29.9838 21.8536C28.4227 22.6524 26.6942 23.0686 24.9409 23.0678Z" fill="black"/>
<path opacity="0.65" fill-rule="evenodd" clip-rule="evenodd" d="M13.8721 11.999C13.8721 10.2828 14.2723 8.59021 15.0409 7.05576C15.8095 5.5213 16.9252 4.18714 18.2995 3.15918C19.6738 4.18705 20.7895 5.52121 21.5581 7.05566C22.3267 8.5902 22.7269 10.2828 22.7269 11.999C22.7269 13.7152 22.3267 15.4078 21.5581 16.9423C20.7895 18.4768 19.6738 19.811 18.2995 20.8388C16.9252 19.8109 15.8095 18.4767 15.0409 16.9423C14.2723 15.4077 13.8721 13.7152 13.8721 11.999Z" fill="black"/>
</svg>
