<svg width="59" height="16" viewBox="0 0 59 16" fill="none" xmlns="http://www.w3.org/2000/svg">
<path fill-rule="evenodd" clip-rule="evenodd" d="M14.6815 15.5259V6.58256H14.2865L11.453 15.5259H8.08815H8.07843L5.25465 6.58256H4.86233V15.5259H0.0302734V0.472717H4.86947C5.47248 0.469884 6.06129 0.661239 6.54742 1.01844C7.03355 1.37556 7.39128 1.87966 7.56926 2.4562L9.55809 9.41345H9.97689L11.9692 2.4562C12.1481 1.8786 12.5076 1.37388 12.9956 1.01667C13.4835 0.659469 14.0732 0.468733 14.6779 0.472717H19.5171V15.5259H14.6779H14.6815Z" fill="black"/>
<path fill-rule="evenodd" clip-rule="evenodd" d="M33.1911 15.5259V6.6613H32.8095L29.5093 14.0879C29.3154 14.517 29.0019 14.8809 28.6061 15.136C28.2094 15.391 27.749 15.5264 27.2779 15.5259H23.0488V0.472659H27.919V9.33724H28.3183L31.6601 1.89917C31.669 1.88058 31.677 1.8611 31.6859 1.8425V1.83719C31.8878 1.42703 32.2012 1.08178 32.5899 0.840575C32.9778 0.599369 33.4267 0.471951 33.8836 0.472659H38.1127V15.5259H33.1911Z" fill="black"/>
<path fill-rule="evenodd" clip-rule="evenodd" d="M52.3918 11.1057H46.5901V15.526H41.665V7.55664H58.0297C57.5418 8.63587 56.7466 9.54774 55.7443 10.1787C54.7419 10.8097 53.5757 11.1321 52.3918 11.1057Z" fill="black"/>
<path opacity="0.55" fill-rule="evenodd" clip-rule="evenodd" d="M58.3398 5.78556H48.9793C44.9141 5.78556 41.5342 3.331 40.8223 0.472656H52.8303C55.9392 0.472656 58.4584 2.62704 58.4584 4.93107C58.4584 5.22 58.4186 5.50752 58.3398 5.78556Z" fill="black"/>
</svg>
