<svg width="17" height="19" viewBox="0 0 17 19" fill="none" xmlns="http://www.w3.org/2000/svg">
<circle cx="8.5" cy="9" r="8.5" fill="#E52B0E"/>
<path d="M6.16168 7.75C6.20168 6.31 7.06168 5.43 8.44168 5.43C9.73168 5.43 10.6117 6.19 10.6117 7.31C10.6117 7.99 10.2317 8.54 9.63168 8.74C10.4217 8.94 10.9017 9.55 10.9017 10.39C10.9017 11.73 9.88168 12.65 8.42168 12.65C6.96168 12.65 5.99168 11.73 5.99168 10.35V10.2H7.09168C7.12168 11.18 7.57168 11.67 8.45168 11.67C9.22168 11.67 9.71168 11.19 9.71168 10.42C9.71168 9.56 9.06168 9.25 8.31168 9.25C8.18168 9.25 8.12168 9.25 7.95168 9.26V8.4H8.05168C8.75168 8.4 9.49168 8.29 9.49168 7.39C9.49168 6.78 9.07168 6.37 8.42168 6.37C7.69168 6.37 7.28168 6.85 7.25168 7.75H6.16168Z" fill="white"/>
</svg>
