<svg width="40" height="36" viewBox="0 0 40 36" fill="none" xmlns="http://www.w3.org/2000/svg">
<path d="M22.1111 3.11111H39M22.1111 11.5556H32.6667M22.1111 24.2222H39M22.1111 32.6667H32.6667M1 3.11111C1 2.55121 1.22242 2.01424 1.61833 1.61833C2.01424 1.22242 2.55121 1 3.11111 1H11.5556C12.1155 1 12.6524 1.22242 13.0483 1.61833C13.4442 2.01424 13.6667 2.55121 13.6667 3.11111V11.5556C13.6667 12.1155 13.4442 12.6524 13.0483 13.0483C12.6524 13.4442 12.1155 13.6667 11.5556 13.6667H3.11111C2.55121 13.6667 2.01424 13.4442 1.61833 13.0483C1.22242 12.6524 1 12.1155 1 11.5556V3.11111ZM1 24.2222C1 23.6623 1.22242 23.1254 1.61833 22.7294C2.01424 22.3335 2.55121 22.1111 3.11111 22.1111H11.5556C12.1155 22.1111 12.6524 22.3335 13.0483 22.7294C13.4442 23.1254 13.6667 23.6623 13.6667 24.2222V32.6667C13.6667 33.2266 13.4442 33.7635 13.0483 34.1595C12.6524 34.5554 12.1155 34.7778 11.5556 34.7778H3.11111C2.55121 34.7778 2.01424 34.5554 1.61833 34.1595C1.22242 33.7635 1 33.2266 1 32.6667V24.2222Z" stroke="white" stroke-width="1.8" stroke-linecap="round" stroke-linejoin="round"/>
</svg>
