<svg width="41" height="40" viewBox="0 0 41 40" fill="none" xmlns="http://www.w3.org/2000/svg">
<path d="M20.25 20.0272C19.6893 20.0272 19.1516 19.8045 18.7551 19.408C18.3586 19.0115 18.1359 18.4738 18.1359 17.9131C18.1359 17.3524 18.3586 16.8146 18.7551 16.4181C19.1516 16.0217 19.6893 15.7989 20.25 15.7989C20.8107 15.7989 21.3484 16.0217 21.7449 16.4181C22.1414 16.8146 22.3641 17.3524 22.3641 17.9131C22.3641 18.4738 22.1414 19.0115 21.7449 19.408C21.3484 19.8045 20.8107 20.0272 20.25 20.0272ZM20.25 20.0272V25.3125M20.25 1C25.1883 5.36901 31.6335 7.6438 38.2201 7.3424C39.1791 10.6045 39.4725 14.0262 39.083 17.4039C38.6934 20.7817 37.6288 24.0467 35.9525 27.005C34.2762 29.9632 32.0223 32.5542 29.3248 34.6242C26.6273 36.6941 23.5413 38.2007 20.25 39.0544C16.9587 38.2007 13.8727 36.6941 11.1752 34.6242C8.47769 32.5542 6.22381 29.9632 4.54749 27.005C2.87116 24.0467 1.80659 20.7817 1.41705 17.4039C1.0275 14.0262 1.32092 10.6045 2.27988 7.3424C8.86651 7.6438 15.3117 5.36901 20.25 1Z" stroke="#2C333D" stroke-width="1.8" stroke-linecap="round" stroke-linejoin="round"/>
</svg>
