<svg width="24" height="24" viewBox="0 0 24 24" fill="none" xmlns="http://www.w3.org/2000/svg">
<path d="M20.3739 12.0365C20.3536 16.9099 16.3972 20.8544 11.5191 20.8544C6.62857 20.8544 2.66426 16.8899 2.66426 11.9996C2.66426 7.10922 6.62857 3.14473 11.5191 3.14473C13.3175 3.14473 14.9911 3.68116 16.3884 4.60268L18.5543 2.88785C16.6089 1.38342 14.1685 0.488281 11.5191 0.488281C5.16133 0.488281 0.0078125 5.64206 0.0078125 11.9996C0.0078125 18.3571 5.16133 23.5109 11.5191 23.5109C17.8769 23.5109 23.0304 18.3571 23.0304 11.9996C23.0304 11.3393 22.9746 10.6919 22.8683 10.062L20.3739 12.0365Z" fill="black"/>
<path d="M22.0042 7.2414C21.6146 6.38443 21.1232 5.5836 20.5449 4.85449L11.5192 11.9999L7.0918 9.23277V12.7747L11.5192 15.5418L22.0042 7.2414Z" fill="black"/>
</svg>
