<svg width="18" height="16" viewBox="0 0 18 16" fill="none" xmlns="http://www.w3.org/2000/svg">
<path d="M0.469016 14.8976C0.594839 13.1755 0.717785 11.5235 0.834981 9.87155C0.852236 9.63123 0.971589 9.53614 1.19448 9.49559C3.32316 9.10686 5.45161 8.71371 7.57982 8.31613C7.6516 8.31378 7.72202 8.29542 7.78617 8.26231C7.87245 8.19671 7.99827 8.10235 7.99611 8.02273C7.99395 7.94312 7.87029 7.81338 7.78041 7.79126C7.33967 7.68364 6.89246 7.60181 6.44597 7.51483C4.68589 7.17057 2.92292 6.82189 1.16284 6.4909C0.893938 6.44004 0.79256 6.29629 0.776743 6.0486C0.668894 4.33395 0.561046 2.6193 0.460387 0.903914C0.435942 0.482992 0.597715 0.406327 1.04421 0.603151C4.22597 2.00868 7.40774 3.41446 10.5895 4.82048C12.7508 5.77438 14.9118 6.72974 17.0726 7.68659C17.2164 7.75146 17.33 7.90036 17.458 8.01094C17.3358 8.12741 17.2322 8.29106 17.0877 8.35446C11.7845 10.6849 6.47833 13.0092 1.16931 15.3273C0.494181 15.6192 0.440256 15.5816 0.469016 14.8976Z" fill="#3F454A"/>
</svg>
