<svg width="77" height="10" viewBox="0 0 77 10" fill="none" xmlns="http://www.w3.org/2000/svg">
<path d="M7.6324 9.70248V2.77854H11.7847V0.258712H0.458008V2.77854H4.60944V9.70248H7.6324ZM16.0175 0.258712H12.9944V9.70248H16.0175V0.258712ZM18.2302 0.258712V9.70248H21.0084V4.4843L26.1955 9.70248H28.7669V0.258712H25.9922V5.43722L20.9288 0.258712H18.2302ZM34.7139 6.13142L38.1956 9.70248H42.0925L37.2324 4.78182L41.9069 0.258712H38.2397L34.7139 3.80993H33.9098V0.258712H30.9849V9.70248H33.9098V6.13142H34.7139ZM48.1014 0C44.1691 0 41.8186 2.18265 41.8186 5C41.8186 7.81821 44.1691 10 48.1014 10C52.016 10 54.3665 7.81821 54.3665 5C54.3665 2.18265 52.016 0 48.1014 0ZM48.1014 7.69834C46.1485 7.69834 44.8937 6.54795 44.8937 5C44.8937 3.45292 46.1485 2.32149 48.1014 2.32149C50.0366 2.32149 51.3091 3.45292 51.3091 5C51.3091 6.54795 50.0366 7.69834 48.1014 7.69834ZM65.4565 0.258712H55.7627V9.70248H58.6788V6.40911H65.0322V4.32563H58.6788V2.65954H65.4565V0.258712ZM76.458 0.258712H66.7643V9.70248H69.6803V6.40911H76.0339V4.32563H69.6803V2.65954H76.458V0.258712Z" fill="black"/>
</svg>
