<svg width="18" height="19" viewBox="0 0 18 19" fill="none" xmlns="http://www.w3.org/2000/svg">
<path opacity="0.9" d="M1.52344 4.49984H3.1901M3.1901 4.49984H16.5234M3.1901 4.49984V16.1665C3.1901 16.6085 3.3657 17.0325 3.67826 17.345C3.99082 17.6576 4.41474 17.8332 4.85677 17.8332H13.1901C13.6321 17.8332 14.0561 17.6576 14.3686 17.345C14.6812 17.0325 14.8568 16.6085 14.8568 16.1665V4.49984H3.1901ZM5.6901 4.49984V2.83317C5.6901 2.39114 5.8657 1.96722 6.17826 1.65466C6.49082 1.3421 6.91474 1.1665 7.35677 1.1665H10.6901C11.1321 1.1665 11.5561 1.3421 11.8686 1.65466C12.1812 1.96722 12.3568 2.39114 12.3568 2.83317V4.49984M7.35677 8.6665V13.6665M10.6901 8.6665V13.6665" stroke="#A3AEBD" stroke-width="1.6" stroke-linecap="round" stroke-linejoin="round"/>
</svg>
