<svg width="48" height="16" viewBox="0 0 48 16" fill="none" xmlns="http://www.w3.org/2000/svg">
<path fill-rule="evenodd" clip-rule="evenodd" d="M43.9471 15.5676C43.9471 15.5676 43.6009 13.4548 43.4849 12.9253H38.4792C38.3411 13.3397 37.6495 15.5676 37.6495 15.5676H33.5657L39.3567 1.75845C39.5005 1.34803 39.78 0.998881 40.1493 0.768655C40.5176 0.53843 40.9542 0.440942 41.3863 0.492212H44.4084L47.5687 15.5676H43.9471ZM41.9397 5.85382L41.6625 4.56455C41.4784 5.14011 41.1313 6.038 41.1552 6.01497C41.1552 6.01497 39.9093 9.35147 39.61 10.2254H42.8394C42.68 9.46393 41.9397 5.85382 41.9397 5.85382ZM33.5427 3.96773C32.6308 3.5558 31.6365 3.35887 30.6365 3.39217C29.0904 3.39217 28.398 4.03591 28.375 4.68055C28.375 5.39425 29.2064 5.85381 30.5887 6.54006C32.8272 7.59821 33.865 8.90961 33.842 10.6345C33.8189 13.7408 31.166 15.765 27.0591 15.765C25.5753 15.77 24.1038 15.4973 22.7203 14.961L23.2516 11.5785L23.7829 11.8317C24.9156 12.3885 26.1657 12.6645 27.4275 12.6366C28.5583 12.6366 29.7572 12.1762 29.7811 11.1641C29.7811 10.4973 29.2737 10.0129 27.7507 9.27798C26.2746 8.56428 24.3133 7.36799 24.3363 5.20475C24.3593 2.28266 27.0583 0.234536 30.911 0.234536C32.1076 0.227718 33.2957 0.437752 34.4175 0.854372L33.8862 4.12269L33.5427 3.96773ZM16.3802 15.5676L18.825 0.492212H22.7212L20.2772 15.5676H16.3802ZM6.99409 15.5676L3.72754 3.29211C4.25803 3.55961 4.76054 3.87936 5.22755 4.24666C6.64671 5.4062 7.86053 6.79641 8.81819 8.35884L8.88282 8.68382L9.29812 10.755L13.1269 0.492212H17.2568L11.1204 15.5676H6.99498H6.99409Z" fill="black"/>
<path opacity="0.35" fill-rule="evenodd" clip-rule="evenodd" d="M5.22436 4.24705C4.75762 3.8794 4.25502 3.55965 3.72435 3.2925L3.50209 2.45748C2.39913 1.82498 1.22303 1.32965 0 0.982275V0.515625H5.98941C6.34777 0.51651 6.69505 0.639943 6.97354 0.865476C7.25202 1.09101 7.44506 1.405 7.52041 1.7553L8.81676 8.35569C7.85823 6.79432 6.64379 5.40544 5.22436 4.24705Z" fill="black"/>
</svg>
