<svg width="77" height="14" viewBox="0 0 77 14" fill="none" xmlns="http://www.w3.org/2000/svg">
<path fill-rule="evenodd" clip-rule="evenodd" d="M22.7981 10.377C22.1274 10.3803 21.4711 10.1824 20.9145 9.80906C20.3516 9.43842 19.9159 8.90478 19.6661 8.27987C19.4045 7.65895 19.3359 6.97401 19.469 6.31373C19.6046 5.65642 19.9234 5.05062 20.3888 4.56593C20.8596 4.08562 21.4645 3.75789 22.1247 3.62541C22.785 3.49293 23.4699 3.56185 24.0903 3.82319C24.7088 4.08573 25.2403 4.51738 25.6234 5.06832C26.0572 5.7213 26.2527 6.50328 26.1769 7.283C26.1011 8.06271 25.7587 8.79269 25.2072 9.35038C24.8979 9.67742 24.5243 9.93736 24.1098 10.114C23.6953 10.2906 23.2489 10.3802 22.7981 10.377ZM22.7981 8.09411e-05C21.6196 -0.00559753 20.4589 0.287593 19.4251 0.852121C18.3914 1.41472 17.5165 2.228 16.8811 3.21689C16.2456 4.20578 15.8702 5.3384 15.7894 6.51021C15.7019 7.68194 15.9208 8.85627 16.4246 9.91836C17.1765 11.5271 18.5138 12.7903 20.1652 13.4516C21.8166 14.1129 23.6584 14.1228 25.3168 13.4793C26.4185 13.0564 27.3918 12.3565 28.1422 11.4476C27.6983 12.281 27.0408 12.9821 26.2366 13.4793V13.8506H29.7848V6.94729C29.7777 5.10318 29.0386 3.33695 27.7292 2.035C26.4199 0.73306 24.647 0.00139571 22.7981 8.09411e-05ZM56.3957 10.4426H51.7963V8.17056H56.3081C56.8776 8.17056 57.5346 8.69496 57.5346 9.30666C57.5346 9.74361 57.1842 10.4426 56.3957 10.4426ZM51.7744 3.53913H55.6511C56.0672 3.53913 56.768 3.97608 56.768 4.65337C56.768 5.19949 56.33 5.78933 55.5415 5.78933H51.7963L51.7744 3.53913ZM59.5496 6.57579C60.3819 5.3088 60.4695 3.561 59.703 2.25028C59.3284 1.59988 58.7832 1.06363 58.1259 0.699229C57.4769 0.332052 56.7474 0.129461 56.0015 0.109251H48.2481V13.8725H56.9213C59.6371 13.8725 61.1484 11.6223 61.1484 9.74361C61.1484 7.95222 60.1191 7.03474 59.5496 6.57579ZM44.7439 5.17763C45.9047 8.30173 45.9704 11.1636 45.9704 13.8725H42.3784C42.3784 11.666 42.2909 9.65617 41.8309 7.84292C41.2176 5.41797 40.0568 3.64844 38.9836 3.64844C37.9104 3.64844 36.7497 5.41783 36.1363 7.84292C35.6765 9.65617 35.5888 11.6004 35.5888 13.8725H31.9969C31.9969 11.404 32.0625 8.32359 33.2234 5.17763C34.3185 2.27214 36.3334 8.09411e-05 38.9836 8.09411e-05C41.6338 8.09411e-05 43.6487 2.27214 44.7439 5.17763ZM14.4096 0.109251V1.55127C14.4061 2.59345 14.1744 3.62229 13.7306 4.56579C13.2881 5.50788 12.6366 6.33718 11.8252 6.99088C12.6365 7.6445 13.2881 8.47371 13.7306 9.4157C14.1744 10.3593 14.4062 11.3882 14.4096 12.4305V13.8725H10.8177V12.0591C10.8177 11.6173 10.7305 11.1798 10.5609 10.7716C10.3914 10.3635 10.143 9.99257 9.82979 9.68015C9.51658 9.36774 9.14475 9.11993 8.73553 8.95085C8.3263 8.78178 7.8877 8.69475 7.44476 8.69475C7.00182 8.69475 6.56322 8.78178 6.15399 8.95085C5.74477 9.11993 5.37294 9.36774 5.05973 9.68015C4.74653 9.99257 4.49808 10.3635 4.32857 10.7716C4.15907 11.1798 4.07182 11.6173 4.07182 12.0591V13.8724H0.458008V12.4306C0.461434 11.3883 0.693177 10.3594 1.13702 9.41583C1.57949 8.47379 2.23107 7.64454 3.04242 6.99088C2.23107 6.33722 1.57949 5.50796 1.13702 4.56593C0.693177 3.62234 0.461434 2.59341 0.458008 1.55113V0.109251H4.04991V1.9225C4.04991 2.36431 4.13715 2.8018 4.30666 3.20999C4.47616 3.61817 4.72461 3.98906 5.03782 4.30147C5.35102 4.61388 5.72285 4.86169 6.13208 5.03077C6.5413 5.19985 6.9799 5.28687 7.42284 5.28687C7.86578 5.28687 8.30439 5.19985 8.71361 5.03077C9.12283 4.86169 9.49466 4.61388 9.80787 4.30147C10.1211 3.98906 10.3695 3.61817 10.539 3.20999C10.7085 2.8018 10.7958 2.36431 10.7958 1.9225V0.109251H14.4096ZM69.4712 10.3772C68.8005 10.3804 68.1443 10.1824 67.5877 9.80906C67.0248 9.43842 66.5891 8.90478 66.3393 8.27987C66.0777 7.65895 66.009 6.97401 66.1422 6.31373C66.2778 5.65642 66.5966 5.05062 67.062 4.56593C67.5328 4.08565 68.1377 3.75793 68.7979 3.62545C69.4581 3.49298 70.1429 3.56188 70.7633 3.82319C71.3819 4.08571 71.9134 4.51736 72.2965 5.06832C72.7304 5.7213 72.9259 6.50328 72.8501 7.283C72.7743 8.06271 72.4319 8.79269 71.8804 9.35038C71.5711 9.67742 71.1975 9.93736 70.783 10.114C70.3685 10.2906 69.9219 10.3803 69.4712 10.3772ZM76.458 6.94729C76.4569 5.3041 75.8665 3.71552 74.7934 2.46876C73.9981 1.53754 72.9715 0.831088 71.8164 0.420136C70.6613 0.00918469 69.4182 -0.0918397 68.2116 0.12718C67.005 0.3462 65.8773 0.877576 64.9413 1.6681C64.0054 2.45862 63.2941 3.48053 62.8787 4.63151C62.3273 6.18017 62.335 7.87223 62.9005 9.41583C63.4646 10.9582 64.5589 12.2511 65.9887 13.0643C67.4112 13.8844 69.0778 14.1784 70.6959 13.8948C72.314 13.6111 73.7803 12.7679 74.8371 11.5131C74.3934 12.3466 73.7359 13.0477 72.9317 13.5449V13.9162H76.458V6.94729Z" fill="black"/>
</svg>
