<svg width="615" height="281" viewBox="0 0 615 281" fill="none" xmlns="http://www.w3.org/2000/svg">
<path d="M212.057 175.002V217.718H178.029V276H130.245V217.718H21.6445V170.296L131.693 21.8764H178.029V175.002H212.057ZM130.245 175.002V80.8824L62.9125 175.002H130.245Z" fill="#DCECFE"/>
<path d="M319.087 21.1523C391.849 21.1523 411.759 91.3803 411.759 151.11C411.759 231.474 377.007 280.344 319.449 280.344C260.805 280.344 225.691 232.198 225.691 151.11C225.691 91.3803 247.049 21.1523 319.087 21.1523ZM318.725 63.5064C276.371 63.5064 276.371 123.598 276.371 153.644C276.371 211.202 290.127 238.714 319.087 238.714C347.323 238.714 361.079 210.116 361.079 151.11C361.079 90.6564 348.047 63.5064 318.725 63.5064Z" fill="#DCECFE"/>
<path d="M614.357 175.002V217.718H580.329V276H532.545V217.718H423.945V170.296L533.993 21.8764H580.329V175.002H614.357ZM532.545 175.002V80.8824L465.213 175.002H532.545Z" fill="#DCECFE"/>
<path d="M191.057 154.002V196.718H157.029V255H109.245V196.718H0.644531V149.296L110.693 0.876356H157.029V154.002H191.057ZM109.245 154.002V59.8824L41.9125 154.002H109.245Z" fill="#186FD4"/>
<path d="M298.087 0.152344C370.849 0.152344 390.759 70.3803 390.759 130.11C390.759 210.474 356.007 259.344 298.449 259.344C239.805 259.344 204.691 211.198 204.691 130.11C204.691 70.3803 226.049 0.152344 298.087 0.152344ZM297.725 42.5064C255.371 42.5064 255.371 102.598 255.371 132.644C255.371 190.202 269.127 217.714 298.087 217.714C326.323 217.714 340.079 189.116 340.079 130.11C340.079 69.6564 327.047 42.5064 297.725 42.5064Z" fill="#186FD4"/>
<path d="M593.357 154.002V196.718H559.329V255H511.545V196.718H402.945V149.296L512.993 0.876356H559.329V154.002H593.357ZM511.545 154.002V59.8824L444.213 154.002H511.545Z" fill="#186FD4"/>
</svg>
